<?xml version="1.0" standalone="no"?><!DOCTYPE svg PUBLIC "-//W3C//DTD SVG 1.1//EN" "http://www.w3.org/Graphics/SVG/1.1/DTD/svg11.dtd"><svg t="1590228267629" class="icon" viewBox="0 0 1024 1024" version="1.1" xmlns="http://www.w3.org/2000/svg" p-id="16470" xmlns:xlink="http://www.w3.org/1999/xlink" width="200" height="200"><defs><style type="text/css"></style></defs><path d="M656 310.4c35.2-38.4 76.8-96 76.8-156.8 0-35.2-9.6-64-32-86.4C659.2 25.6 585.6 25.6 502.4 25.6h-60.8C364.8 25.6 300.8 22.4 259.2 64c-22.4 22.4-32 51.2-32 89.6 0 86.4 76.8 163.2 112 192 12.8 12.8 35.2 9.6 44.8-3.2 12.8-12.8 9.6-35.2-3.2-44.8-54.4-48-89.6-102.4-89.6-144 0-32 9.6-41.6 12.8-44.8 22.4-19.2 76.8-19.2 137.6-19.2h67.2c67.2 0 131.2 0 153.6 22.4 0 3.2 9.6 12.8 9.6 41.6 0 38.4-35.2 92.8-92.8 140.8-9.6 6.4-12.8 19.2-9.6 28.8s9.6 19.2 19.2 25.6c118.4 44.8 243.2 166.4 243.2 332.8 0 156.8-96 214.4-352 214.4S128 838.4 128 681.6c0-96 44.8-192 124.8-262.4 12.8-12.8 16-32 3.2-44.8s-32-16-44.8-3.2C118.4 454.4 64 566.4 64 681.6 64 960 345.6 960 480 960s416 0 416-278.4c3.2-153.6-96-297.6-240-371.2z m-44.8 156.8c12.8-12.8 12.8-32 0-44.8s-32-12.8-44.8 0l-80 76.8-80-76.8c-12.8-12.8-32-12.8-44.8 0s-12.8 32 0 44.8l89.6 86.4v19.2h-64c-19.2 0-32 12.8-32 32s12.8 32 32 32h64v32h-64c-19.2 0-32 12.8-32 32s12.8 32 32 32h64V800c0 19.2 12.8 32 32 32s32-12.8 32-32v-67.2h64c19.2 0 32-12.8 32-32s-12.8-32-32-32h-64v-32h64c19.2 0 32-12.8 32-32s-12.8-32-32-32h-64v-12.8l96-92.8z" p-id="16471"></path></svg>